
<svg xmlns="http://www.w3.org/2000/svg" width="1800" height="1000" viewBox="0 0 1800 1000">
<rect width="1800" height="1000" fill="#7d8a93"/>
<path d="M0 1000 L0 220 C260 130 600 100 900 100 C1210 100 1500 138 1800 232 L1800 1000Z" fill="#576269"/>
<path d="M150 1000 L280 330 C480 284 692 260 900 260 C1110 260 1322 286 1520 342 L1650 1000Z" fill="#31383d"/>
<path d="M360 1000 L472 430 C606 410 752 398 900 398 C1050 398 1198 410 1328 432 L1440 1000Z" fill="#1c2023"/>
<rect x="862" y="398" width="76" height="602" fill="#edf1f3"/>
</svg>
