
<svg xmlns="http://www.w3.org/2000/svg" width="1800" height="1000" viewBox="0 0 1800 1000">
<defs>
  <linearGradient id="bg" x1="0" y1="0" x2="1" y2="1">
    <stop offset="0" stop-color="#2f3b44"/>
    <stop offset="1" stop-color="#10171b"/>
  </linearGradient>
  <linearGradient id="pipe" x1="0" y1="0" x2="1" y2="0">
    <stop offset="0" stop-color="#72818c"/>
    <stop offset="1" stop-color="#41515c"/>
  </linearGradient>
  <radialGradient id="glow" cx="50%" cy="35%" r="60%">
    <stop offset="0" stop-color="#ffd59a" stop-opacity=".95"/>
    <stop offset="1" stop-color="#ffd59a" stop-opacity="0"/>
  </radialGradient>
</defs>
<rect width="1800" height="1000" fill="url(#bg)"/>
<g opacity=".95">
  <rect x="88" y="0" width="28" height="1000" fill="#ced7dc"/>
  <rect x="212" y="-10" width="18" height="1020" fill="#adb8bf"/>
  <rect x="386" y="0" width="12" height="1000" fill="#a0adb4"/>
  <rect x="872" y="-24" width="32" height="1060" fill="#7f8c95"/>
  <rect x="1292" y="-30" width="22" height="1060" fill="#667680"/>
</g>
<g stroke="url(#pipe)" fill="none" stroke-linecap="round" opacity=".95">
  <path d="M100 220 C 450 180, 800 240, 1450 160" stroke-width="36"/>
  <path d="M120 360 C 520 330, 1050 410, 1730 300" stroke-width="42"/>
  <path d="M220 520 C 630 500, 1220 470, 1750 520" stroke-width="34"/>
  <path d="M180 690 C 620 660, 1120 620, 1740 680" stroke-width="38"/>
</g>
<g opacity=".85">
  <circle cx="1160" cy="220" r="118" fill="url(#glow)"/>
</g>
<g opacity=".92">
  <ellipse cx="1060" cy="840" rx="165" ry="96" fill="#2c3237"/>
  <ellipse cx="1318" cy="800" rx="138" ry="84" fill="#343b41"/>
  <ellipse cx="914" cy="826" rx="114" ry="72" fill="#434b51"/>
  <rect x="1010" y="610" width="52" height="280" rx="22" fill="#2e3337"/>
  <rect x="1280" y="580" width="48" height="310" rx="22" fill="#31373b"/>
  <rect x="870" y="616" width="44" height="274" rx="20" fill="#444b50"/>
  <rect x="1056" y="646" width="258" height="40" rx="20" fill="#8a99a2"/>
  <rect x="896" y="706" width="196" height="36" rx="18" fill="#6f7f88"/>
</g>
</svg>
