
<svg xmlns="http://www.w3.org/2000/svg" width="1800" height="1000" viewBox="0 0 1800 1000">
<rect width="1800" height="1000" fill="#b9d7e6"/>
<rect y="610" width="1800" height="390" fill="#6eafcf"/>
<rect y="540" width="1800" height="90" fill="#7fa6bb"/>
<g fill="#dce8ef">
  <ellipse cx="280" cy="150" rx="130" ry="44"/>
  <ellipse cx="980" cy="136" rx="140" ry="52"/>
  <ellipse cx="1240" cy="194" rx="92" ry="34"/>
</g>
<g fill="#6d9367">
  <rect y="520" width="1800" height="90"/>
  <path d="M0 600 C260 520, 600 640, 910 560 C1180 490, 1450 610, 1800 530 L1800 620 L0 620Z"/>
</g>
<g stroke="#d9dde1" stroke-width="9" fill="none" opacity=".95">
  <path d="M180 630 L1630 630"/>
  <path d="M320 630 L460 468"/>
  <path d="M460 468 L610 630"/>
  <path d="M700 630 L850 456"/>
  <path d="M850 456 L1002 630"/>
  <path d="M1100 630 L1238 472"/>
  <path d="M1238 472 L1390 630"/>
  <path d="M1498 630 L1376 512"/>
</g>
<g fill="#c7c7c7">
  <rect x="447" y="468" width="28" height="165"/>
  <rect x="838" y="456" width="28" height="177"/>
  <rect x="1224" y="472" width="28" height="161"/>
  <rect x="1378" y="512" width="24" height="121"/>
</g>
</svg>
